<?xml version="1.0" encoding="iso-8859-1"?>
<!-- Generator: Adobe Illustrator 19.0.0, SVG Export Plug-In . SVG Version: 6.00 Build 0)  -->
<svg version="1.1" id="Capa_1" xmlns="http://www.w3.org/2000/svg" xmlns:xlink="http://www.w3.org/1999/xlink" x="0px" y="0px"
	 viewBox="0 0 512 512" style="enable-background:new 0 0 512 512;" xml:space="preserve">
<path style="fill:#D8FB93;" d="M97.485,190c2.896-10.809,5.086-23.451,5.077-36.963C102.537,113.242,83.449,81,83.449,81
	s-19.039,32.271-19.014,72.067c0.009,13.503,2.213,26.134,5.121,36.933H97.485z"/>
<g>
	<path style="fill:#A0E557;" d="M91.491,190h36.07c2.424-2.908,4.776-6,7.002-9.277c20.298-29.88,22.434-63.824,22.434-63.824
		s-32.403,17.203-52.702,47.083"/>
	<path style="fill:#A0E557;" d="M62.868,163.417C42.569,133.536,10,116.899,10,116.899s2.136,33.944,22.434,63.824
		c2.226,3.277,4.579,6.369,7.002,9.277h36.07"/>
</g>
<polygon style="fill:#FF5D5D;" points="116.14,262 50.858,262 33.205,190 133.793,190 "/>
<path style="fill:#72D8FF;" d="M208.834,262h-21.667c-9.481,0-17.167-7.686-17.167-17.167V198h56v46.833
	C226,254.314,218.314,262,208.834,262z"/>
<path style="fill:#FFFFFF;" d="M448,230L448,230c-11.046,0-20,8.954-20,20v12h40v-12C468,238.954,459.046,230,448,230z"/>
<rect x="351" y="198" style="fill:#D8D8E4;" width="46" height="64"/>
<path style="fill:#C9F3FF;" d="M471.5,198h-191c-13.531,0-24.5-10.969-24.5-24.5v-139c0-13.531,10.969-24.5,24.5-24.5h191
	c13.531,0,24.5,10.969,24.5,24.5v139C496,187.031,485.031,198,471.5,198z"/>
<path style="fill:#FFFFFF;" d="M256,150v23.5c0,13.531,10.969,24.5,24.5,24.5h191c13.531,0,24.5-10.969,24.5-24.5V150H256z"/>
<rect x="24" y="262" style="fill:#EDF2FA;" width="272" height="56"/>
<rect x="296" y="422" style="fill:#FFB954;" width="192" height="80"/>
<rect x="296" y="344" style="fill:#FFC66C;" width="192" height="80"/>
<rect x="296" y="266" style="fill:#FFB954;" width="192" height="80"/>
<path d="M157,308c-2.63,0-5.21,1.069-7.07,2.93c-1.87,1.86-2.93,4.44-2.93,7.07s1.06,5.21,2.93,7.069
	c1.86,1.86,4.44,2.931,7.07,2.931s5.21-1.07,7.07-2.931c1.86-1.859,2.93-4.439,2.93-7.069s-1.07-5.21-2.93-7.07S159.63,308,157,308z
	"/>
<path d="M502,252h-14h-10v-2c0-16.542-13.458-30-30-30s-30,13.458-30,30v2h-11v-44h64.5c19.023,0,34.5-15.477,34.5-34.5v-139
	C506,15.477,490.524,0,471.5,0h-191C261.477,0,246,15.477,246,34.5v139c0,19.023,15.477,34.5,34.5,34.5H341v44h-45h-60.966
	c0.626-2.285,0.966-4.686,0.966-7.167V198c0-5.523-4.477-10-10-10h-56c-5.523,0-10,4.477-10,10v46.833
	c0,2.48,0.341,4.882,0.966,7.167h-32.079l14.617-59.619c0.519-2.115,0.314-4.311-0.516-6.273
	c21.441-31.717,23.895-67.087,23.989-68.581c0.227-3.614-1.517-7.069-4.561-9.032c-3.043-1.963-6.911-2.125-10.109-0.429
	c-1.094,0.581-21.398,11.507-40.462,31.072c-3.522-35.344-19.05-61.98-19.792-63.233C90.255,72.865,86.983,71,83.449,71
	c-0.002,0-0.005,0-0.007,0c-3.537,0.002-6.809,1.873-8.605,4.918c-0.735,1.247-16.045,27.591-19.642,62.622
	c-19.135-19.408-39.544-29.984-40.645-30.547c-3.199-1.635-7.031-1.427-10.035,0.544s-4.72,5.403-4.495,8.989
	c0.094,1.494,2.549,36.864,23.989,68.581c-0.831,1.963-1.035,4.159-0.516,6.274L38.11,252H10c-5.523,0-10,4.477-10,10
	c0,5.522,4.477,10,10,10h4v230c0,5.522,4.477,10,10,10s10-4.478,10-10V328h80c5.523,0,10-4.478,10-10s-4.477-10-10-10H34v-36h252v36
	h-88c-5.523,0-10,4.478-10,10s4.477,10,10,10h88v174c0,5.522,4.477,10,10,10h192c5.523,0,10-4.478,10-10V272h4
	c5.523,0,10-4.478,10-10C512,256.477,507.523,252,502,252z M142.833,138.348c-2.993,10.856-8.055,24.263-16.541,36.754
	c-1.116,1.643-2.299,3.28-3.538,4.897h-12.77c0.56-3.009,1.032-6.004,1.409-8.982c0.425-0.43,0.822-0.899,1.174-1.417
	C121.505,156.446,133.133,145.837,142.833,138.348z M83.483,105.184c4.496,12.179,9.067,29.156,9.079,47.859
	c0.006,8.717-0.985,17.755-2.951,26.957H77.42c-1.977-9.194-2.979-18.227-2.985-26.939
	C74.424,134.432,78.994,117.407,83.483,105.184z M54.596,169.036c0.281,0.414,0.596,0.79,0.925,1.148
	c0.397,3.253,0.904,6.526,1.521,9.816H44.243c-1.238-1.617-2.421-3.254-3.537-4.896c-8.609-12.673-13.693-26.284-16.669-37.22
	C33.81,145.239,45.592,155.781,54.596,169.036z M58.702,252l-12.749-52h23.604h5.95h15.984h5.994h23.56l-12.749,52H58.702z
	 M187.167,252c-3.952,0-7.167-3.215-7.167-7.167V208h36v36.833c0,3.952-3.215,7.167-7.167,7.167H187.167z M438,250
	c0-5.514,4.486-10,10-10s10,4.486,10,10v2h-20V250z M280.5,20h78.536l-47.284,47.284c-3.905,3.905-3.906,10.237,0,14.143
	c1.953,1.953,4.512,2.929,7.071,2.929c2.559,0,5.119-0.977,7.071-2.929L387.32,20h84.18c7.995,0,14.5,6.505,14.5,14.5V140h-99.666
	l58.856-58.855c3.905-3.905,3.905-10.237,0-14.142s-10.236-3.905-14.143,0l-70.993,70.993c-0.613,0.613-1.119,1.291-1.539,2.005H266
	V34.5C266,26.505,272.505,20,280.5,20z M266,173.5V160h220v13.5c0,7.995-6.505,14.5-14.5,14.5h-191
	C272.505,188,266,181.495,266,173.5z M361,208h26v44h-26V208z M478,412H306v-60h172V412z M306,492v-60h172v60H306z M478,332H306v-60
	h172V332z"/>
<path d="M392,291.67c-2.63,0-5.21,1.06-7.07,2.93c-1.86,1.86-2.93,4.431-2.93,7.07c0,2.63,1.07,5.21,2.93,7.07
	c1.86,1.859,4.44,2.93,7.07,2.93s5.21-1.07,7.07-2.93c1.86-1.87,2.93-4.44,2.93-7.07c0-2.64-1.07-5.21-2.93-7.07
	C397.21,292.73,394.63,291.67,392,291.67z"/>
<path d="M384.93,391.069c1.86,1.86,4.44,2.931,7.07,2.931s5.21-1.07,7.07-2.931c1.86-1.859,2.93-4.439,2.93-7.069
	s-1.07-5.21-2.93-7.07S394.63,374,392,374s-5.21,1.069-7.07,2.93c-1.86,1.86-2.93,4.43-2.93,7.07
	C382,386.63,383.07,389.21,384.93,391.069z"/>
<path d="M392,451.94c-2.63,0-5.21,1.07-7.07,2.931c-1.86,1.859-2.93,4.439-2.93,7.069s1.07,5.21,2.93,7.07
	c1.86,1.86,4.44,2.93,7.07,2.93s5.21-1.069,7.07-2.93s2.93-4.44,2.93-7.07s-1.07-5.21-2.93-7.069
	C397.21,453.01,394.63,451.94,392,451.94z"/>
<path d="M461.78,60.41c2.64,0,5.21-1.07,7.07-2.93c1.86-1.86,2.93-4.44,2.93-7.07s-1.07-5.21-2.93-7.07s-4.43-2.93-7.07-2.93
	c-2.63,0-5.21,1.07-7.07,2.93c-1.86,1.86-2.93,4.44-2.93,7.07s1.07,5.21,2.93,7.07C456.57,59.34,459.15,60.41,461.78,60.41z"/>
<path d="M374.35,184c2.63,0,5.21-1.07,7.07-2.93s2.93-4.44,2.93-7.07s-1.07-5.21-2.93-7.07s-4.44-2.93-7.07-2.93
	s-5.21,1.07-7.07,2.93c-1.86,1.86-2.93,4.44-2.93,7.07s1.07,5.21,2.93,7.07S371.72,184,374.35,184z"/>
<path d="M186.5,172.949c5.523,0,10-4.477,10-10v-9.5c0-5.523-4.477-10-10-10s-10,4.477-10,10v9.5
	C176.5,168.472,180.977,172.949,186.5,172.949z"/>
<path d="M213,148.75c5.523,0,10-4.477,10-10v-11.101c0-5.523-4.477-10-10-10s-10,4.477-10,10v11.101
	C203,144.273,207.477,148.75,213,148.75z"/>
<g>
</g>
<g>
</g>
<g>
</g>
<g>
</g>
<g>
</g>
<g>
</g>
<g>
</g>
<g>
</g>
<g>
</g>
<g>
</g>
<g>
</g>
<g>
</g>
<g>
</g>
<g>
</g>
<g>
</g>
</svg>
