<?xml version="1.0" encoding="iso-8859-1"?>
<!-- Generator: Adobe Illustrator 19.0.0, SVG Export Plug-In . SVG Version: 6.00 Build 0)  -->
<svg version="1.1" id="Capa_1" xmlns="http://www.w3.org/2000/svg" xmlns:xlink="http://www.w3.org/1999/xlink" x="0px" y="0px"
	 viewBox="0 0 512 512" style="enable-background:new 0 0 512 512;" xml:space="preserve">
<g>
	<rect x="10" y="283" style="fill:#FEDA9B;" width="192" height="192"/>
	<rect x="10" y="37" style="fill:#FEDA9B;" width="192" height="192"/>
</g>
<rect x="50" y="77" style="fill:#FF5D5D;" width="112" height="112"/>
<rect x="50" y="323" style="fill:#72D8FF;" width="112" height="112"/>
<rect x="256" y="37" style="fill:#FFC66C;" width="246" height="438"/>
<rect x="295" y="77" style="fill:#FFFFFF;" width="168" height="358"/>
<path d="M502,485H256c-5.523,0-10-4.478-10-10V283c0-5.522,4.477-10,10-10c5.523,0,10,4.478,10,10v182h226V47H266v149.765
	c0,5.522-4.477,10-10,10s-10-4.478-10-10V37c0-5.522,4.477-10,10-10h246c5.523,0,10,4.478,10,10v438
	C512,480.522,507.523,485,502,485z"/>
<path d="M256,248c-2.63,0-5.21-1.07-7.07-2.931C247.07,243.21,246,240.63,246,238s1.07-5.21,2.93-7.07
	c1.86-1.86,4.44-2.93,7.07-2.93s5.21,1.069,7.07,2.93S266,235.37,266,238s-1.07,5.21-2.93,7.069C261.21,246.93,258.63,248,256,248z"
	/>
<path d="M463,445H295c-5.523,0-10-4.478-10-10V77c0-5.522,4.477-10,10-10h168c5.523,0,10,4.478,10,10v358
	C473,440.522,468.523,445,463,445z M305,425h148V87H305V425z"/>
<path d="M202,239H10c-5.523,0-10-4.478-10-10V37c0-5.522,4.477-10,10-10h192c5.523,0,10,4.478,10,10v192
	C212,234.522,207.523,239,202,239z M20,219h172V47H20V219z"/>
<path d="M162,199H50c-5.523,0-10-4.478-10-10V77c0-5.522,4.477-10,10-10h112c5.523,0,10,4.478,10,10v112
	C172,194.522,167.523,199,162,199z M60,179h92V87H60V179z"/>
<path d="M162,445H50c-5.523,0-10-4.478-10-10V323c0-5.522,4.477-10,10-10h112c5.523,0,10,4.478,10,10v112
	C172,440.522,167.523,445,162,445z M60,425h92v-92H60V425z"/>
<path d="M109,293c-2.63,0-5.21-1.07-7.07-2.931C100.07,288.21,99,285.63,99,283s1.07-5.21,2.93-7.07c1.86-1.86,4.44-2.93,7.07-2.93
	s5.21,1.069,7.07,2.93S119,280.37,119,283s-1.07,5.21-2.93,7.069C114.21,291.93,111.63,293,109,293z"/>
<path d="M202,485H10c-5.523,0-10-4.478-10-10V283c0-5.522,4.477-10,10-10h53c5.523,0,10,4.478,10,10s-4.477,10-10,10H20v172h172V293
	h-41c-5.523,0-10-4.478-10-10s4.477-10,10-10h51c5.523,0,10,4.478,10,10v192C212,480.522,207.523,485,202,485z"/>
<path style="fill:#A0E557;" d="M381.234,321.777h-1.112c-25.31,0-46.962-18.183-51.337-43.112l0,0
	c-2.01-11.449-0.134-23.242,5.328-33.503l44.899-84.342h-0.023l44.899,84.342c5.462,10.261,7.338,22.054,5.328,33.503l0,0
	c-4.375,24.929-26.027,43.112-51.337,43.112h-1.112"/>
<path d="M432.714,240.463l-44.678-83.928c-0.139-0.294-0.293-0.581-0.463-0.863c-1.808-3.01-5.073-4.852-8.584-4.852
	s-6.765,1.842-8.573,4.852c-0.201,0.335-0.381,0.678-0.539,1.028l-44.59,83.763c-6.479,12.17-8.734,26.351-6.351,39.931
	c4.547,25.904,24.621,45.618,49.669,50.307v20.479c0,5.522,4.477,10,10,10s10-4.478,10-10v-20.325
	c25.418-4.417,45.866-24.284,50.461-50.461C441.448,266.813,439.192,252.633,432.714,240.463z M368.604,259.372l-20.052-20.052
	l20.052-37.668V259.372z M388.604,200.164l20.569,38.639l-20.569,20.569V200.164z M338.634,276.937
	c-1.074-6.12-0.751-12.418,0.871-18.378l29.098,29.098v22.52C353.374,305.867,341.489,293.202,338.634,276.937z M419.366,276.937
	c-2.904,16.546-15.153,29.367-30.762,33.456v-22.735l29.724-29.724C420.101,264.076,420.478,270.603,419.366,276.937z"/>
<g>
</g>
<g>
</g>
<g>
</g>
<g>
</g>
<g>
</g>
<g>
</g>
<g>
</g>
<g>
</g>
<g>
</g>
<g>
</g>
<g>
</g>
<g>
</g>
<g>
</g>
<g>
</g>
<g>
</g>
</svg>
