<?xml version="1.0" encoding="iso-8859-1"?>
<!-- Generator: Adobe Illustrator 19.0.0, SVG Export Plug-In . SVG Version: 6.00 Build 0)  -->
<svg version="1.1" id="Capa_1" xmlns="http://www.w3.org/2000/svg" xmlns:xlink="http://www.w3.org/1999/xlink" x="0px" y="0px"
	 viewBox="0 0 512 512" style="enable-background:new 0 0 512 512;" xml:space="preserve">
<rect x="113" y="150" style="fill:#FFEFD5;" width="40" height="128"/>
<path style="fill:#72D8FF;" d="M466,435.055V346.5c0-37.832-30.668-68.5-68.5-68.5H312h-88H114.5C76.669,278,46,308.668,46,346.5
	v88.555H466z"/>
<path style="fill:#C9F3FF;" d="M395.5,426h-279C97.446,426,82,441.446,82,460.5V502h348v-41.5C430,441.446,414.554,426,395.5,426z"
	/>
<g>
	<path style="fill:#ADE5FF;" d="M53.5,382h-15C22.76,382,10,394.76,10,410.5V502h72v-91.5C82,394.76,69.24,382,53.5,382z"/>
	<path style="fill:#ADE5FF;" d="M473.5,382h-15c-15.74,0-28.5,12.76-28.5,28.5V502h72v-91.5C502,394.76,489.24,382,473.5,382z"/>
	<rect x="310" y="10" style="fill:#ADE5FF;" width="192" height="128"/>
</g>
<polygon style="fill:#A0E557;" points="502,138 502,109.088 500.667,106.206 444.787,50.326 390.27,104.843 367.101,81.673 
	312,136.774 310.92,138 "/>
<rect x="55" y="30" style="fill:#FFB9B7;" width="156" height="120"/>
<path d="M476,372.09V346.5c0-43.285-35.215-78.5-78.5-78.5H312c-5.523,0-10,4.478-10,10s4.477,10,10,10h85.5
	c32.257,0,58.5,26.243,58.5,58.5v25.59c-20.067,1.294-36,18.022-36,38.41v12.877c-7.032-4.656-15.453-7.377-24.5-7.377h-279
	c-9.047,0-17.468,2.721-24.5,7.377V410.5c0-20.388-15.933-37.116-36-38.41V346.5c0-32.257,26.243-58.5,58.5-58.5H224
	c5.523,0,10-4.478,10-10s-4.477-10-10-10h-61V160h48c5.523,0,10-4.478,10-10V30c0-5.522-4.477-10-10-10H55c-5.523,0-10,4.478-10,10
	v120c0,5.522,4.477,10,10,10h9v24.333c0,5.522,4.477,10,10,10s10-4.478,10-10V160h19v108.85c-37.852,5.582-67,38.271-67,77.65v25.59
	c-20.067,1.294-36,18.022-36,38.41V502c0,5.522,4.477,10,10,10h492c5.523,0,10-4.478,10-10v-91.5
	C512,390.112,496.067,373.384,476,372.09z M65,40h136v24H95c-5.523,0-10,4.478-10,10s4.477,10,10,10h106v56h-48h-40H65V40z M143,160
	v108h-20V160H143z M20,410.5c0-10.201,8.299-18.5,18.5-18.5h15c10.201,0,18.5,8.299,18.5,18.5V492H20V410.5z M92,460.5
	c0-13.51,10.991-24.5,24.5-24.5h279c13.509,0,24.5,10.99,24.5,24.5V492H92V460.5z M492,492h-52v-81.5c0-10.201,8.299-18.5,18.5-18.5
	h15c10.201,0,18.5,8.299,18.5,18.5V492z"/>
<path d="M270,288c2.63,0,5.21-1.07,7.07-2.931c1.86-1.859,2.93-4.439,2.93-7.069s-1.07-5.21-2.93-7.07S272.63,268,270,268
	s-5.21,1.069-7.07,2.93c-1.86,1.86-2.93,4.44-2.93,7.07s1.07,5.21,2.93,7.069C264.79,286.93,267.37,288,270,288z"/>
<path d="M81.07,230.069C82.93,228.21,84,225.63,84,223s-1.07-5.21-2.93-7.07S76.63,213,74,213s-5.21,1.069-7.07,2.93
	C65.07,217.79,64,220.37,64,223s1.07,5.21,2.93,7.069C68.79,231.93,71.37,233,74,233S79.21,231.93,81.07,230.069z"/>
<path d="M127.9,344.93c-1.86,1.86-2.93,4.44-2.93,7.07s1.07,5.21,2.93,7.069c1.86,1.86,4.44,2.931,7.07,2.931s5.21-1.07,7.07-2.931
	c1.87-1.859,2.93-4.439,2.93-7.069s-1.06-5.21-2.93-7.07c-1.86-1.86-4.44-2.93-7.07-2.93S129.76,343.069,127.9,344.93z"/>
<path d="M172.38,344.93c-1.86-1.86-4.44-2.93-7.07-2.93c-2.64,0-5.21,1.069-7.07,2.93c-1.87,1.86-2.93,4.44-2.93,7.07
	s1.06,5.21,2.93,7.069c1.85,1.86,4.43,2.931,7.07,2.931c2.63,0,5.21-1.07,7.07-2.931c1.86-1.859,2.93-4.439,2.93-7.069
	S174.24,346.79,172.38,344.93z"/>
<path d="M188.57,344.93c-1.86,1.86-2.93,4.44-2.93,7.07s1.07,5.21,2.93,7.069c1.86,1.86,4.43,2.931,7.07,2.931
	c2.63,0,5.21-1.07,7.07-2.931c1.86-1.859,2.93-4.439,2.93-7.069s-1.07-5.21-2.93-7.07s-4.44-2.93-7.07-2.93
	C193.01,342,190.43,343.069,188.57,344.93z"/>
<path d="M172.38,314.6c-1.86-1.87-4.44-2.93-7.07-2.93c-2.64,0-5.21,1.06-7.07,2.93c-1.87,1.86-2.93,4.431-2.93,7.07
	c0,2.63,1.06,5.21,2.93,7.07c1.86,1.859,4.43,2.93,7.07,2.93c2.63,0,5.2-1.07,7.07-2.93c1.86-1.87,2.93-4.44,2.93-7.07
	S174.24,316.46,172.38,314.6z"/>
<path d="M165.31,372.33c-2.64,0-5.21,1.069-7.07,2.93c-1.87,1.86-2.93,4.44-2.93,7.07s1.06,5.21,2.93,7.069
	c1.86,1.87,4.43,2.931,7.07,2.931c2.63,0,5.21-1.061,7.07-2.931c1.86-1.859,2.93-4.439,2.93-7.069s-1.07-5.21-2.93-7.07
	S167.94,372.33,165.31,372.33z"/>
<path d="M296.67,362c2.63,0,5.21-1.07,7.07-2.931c1.86-1.859,2.93-4.439,2.93-7.069s-1.07-5.21-2.93-7.07
	c-1.86-1.86-4.44-2.93-7.07-2.93c-2.64,0-5.21,1.069-7.08,2.93c-1.86,1.86-2.92,4.44-2.92,7.07s1.06,5.21,2.92,7.069
	C291.46,360.93,294.03,362,296.67,362z"/>
<path d="M319.93,359.069c1.86,1.86,4.44,2.931,7.07,2.931s5.21-1.07,7.07-2.931c1.86-1.859,2.93-4.439,2.93-7.069
	s-1.07-5.21-2.93-7.07S329.63,342,327,342s-5.21,1.069-7.07,2.93c-1.86,1.86-2.93,4.44-2.93,7.07S318.07,357.21,319.93,359.069z"/>
<path d="M364.41,359.069c1.86-1.859,2.92-4.439,2.92-7.069s-1.06-5.21-2.92-7.07c-1.87-1.86-4.44-2.93-7.08-2.93
	c-2.63,0-5.21,1.069-7.07,2.93s-2.93,4.44-2.93,7.07s1.07,5.21,2.93,7.069c1.86,1.86,4.44,2.931,7.07,2.931
	C359.97,362,362.54,360.93,364.41,359.069z"/>
<path d="M327,331.67c2.63,0,5.21-1.07,7.07-2.93c1.86-1.86,2.93-4.44,2.93-7.07c0-2.64-1.07-5.21-2.93-7.07
	c-1.86-1.87-4.44-2.93-7.07-2.93s-5.21,1.06-7.07,2.93c-1.86,1.86-2.93,4.431-2.93,7.07c0,2.63,1.07,5.21,2.93,7.07
	C321.79,330.6,324.37,331.67,327,331.67z"/>
<path d="M319.93,389.399c1.86,1.87,4.44,2.931,7.07,2.931s5.21-1.061,7.07-2.931c1.86-1.859,2.93-4.439,2.93-7.069
	s-1.07-5.21-2.93-7.07s-4.44-2.93-7.07-2.93s-5.21,1.069-7.07,2.93c-1.86,1.86-2.93,4.44-2.93,7.07S318.07,387.54,319.93,389.399z"
	/>
<path d="M502,0H310c-5.523,0-10,4.478-10,10v128c0,5.522,4.477,10,10,10h192c5.523,0,10-4.478,10-10V10C512,4.478,507.523,0,502,0z
	 M492,20v63.397l-40.142-40.142c-1.875-1.875-4.419-2.929-7.071-2.929s-5.196,1.054-7.071,2.929L390.271,90.7l-16.099-16.099
	c-1.875-1.875-4.419-2.929-7.071-2.929s-5.196,1.054-7.071,2.929L320,114.632V20H492z M334.917,128l32.184-32.185l16.099,16.099
	c3.905,3.904,10.237,3.904,14.143,0l47.445-47.445L492,111.682V128H334.917z"/>
<path d="M383.75,63.25c2.559,0,5.119-0.977,7.071-2.929l0.25-0.25c3.905-3.905,3.905-10.237,0-14.143
	c-3.905-3.904-10.237-3.904-14.143,0l-0.25,0.25c-3.905,3.905-3.905,10.237,0,14.143C378.631,62.273,381.191,63.25,383.75,63.25z"/>
<g>
</g>
<g>
</g>
<g>
</g>
<g>
</g>
<g>
</g>
<g>
</g>
<g>
</g>
<g>
</g>
<g>
</g>
<g>
</g>
<g>
</g>
<g>
</g>
<g>
</g>
<g>
</g>
<g>
</g>
</svg>
